<?xml version="1.0" encoding="utf-8"?>
<!-- Generator: Adobe Illustrator 14.0.0, SVG Export Plug-In . SVG Version: 6.00 Build 43363)  -->
<!DOCTYPE svg PUBLIC "-//W3C//DTD SVG 1.1//EN" "http://www.w3.org/Graphics/SVG/1.1/DTD/svg11.dtd">
<svg version="1.1"
	 id="svg2" xmlns:dc="http://purl.org/dc/elements/1.1/" xmlns:cc="http://creativecommons.org/ns#" xmlns:rdf="http://www.w3.org/1999/02/22-rdf-syntax-ns#" xmlns:svg="http://www.w3.org/2000/svg" xmlns:sodipodi="http://sodipodi.sourceforge.net/DTD/sodipodi-0.dtd" xmlns:inkscape="http://www.inkscape.org/namespaces/inkscape" inkscape:version="0.48.3.1 r9886" sodipodi:docname="strut-logo.svg" inkscape:export-ydpi="90" inkscape:export-xdpi="90" inkscape:export-filename="/home/user/strut-touch.png"
	 xmlns="http://www.w3.org/2000/svg" xmlns:xlink="http://www.w3.org/1999/xlink" x="0px" y="0px" width="400px" height="128px"
	 viewBox="0 0 400 128" enable-background="new 0 0 400 128" xml:space="preserve">
<sodipodi:namedview  id="base" inkscape:pageopacity="0.0" inkscape:pageshadow="2" showguides="true" fit-margin-left="0" fit-margin-top="0" showgrid="true" inkscape:cy="129.51506" inkscape:cx="276.65995" inkscape:zoom="1.4142136" bordercolor="#666666" borderopacity="1.0" pagecolor="#ffffff" inkscape:window-maximized="1" inkscape:guide-bbox="true" fit-margin-bottom="0" fit-margin-right="0" inkscape:window-y="-31" inkscape:window-x="0" inkscape:window-height="800" inkscape:window-width="1280" inkscape:current-layer="layer1" inkscape:document-units="px">
	<sodipodi:guide  id="guide4650" position="27.992188,28" orientation="0,1"></sodipodi:guide>
	<sodipodi:guide  id="guide4652" position="30.511719,98" orientation="0,1"></sodipodi:guide>
	
		<inkscape:grid  type="xygrid" visible="true" originy="0px" originx="0px" enabled="true" id="grid4974" empspacing="4" snapvisiblegridlinesonly="true">
		</inkscape:grid>
</sodipodi:namedview>
<g id="layer1" transform="translate(-50,-865.3819)" inkscape:label="Layer 1" inkscape:groupmode="layer">
	<g id="XMLID_1_">
		<g>
			<path fill="#FFFFFF" d="M441.34,962.822c1.351-0.36,2.521-0.721,3.5-1.08c1.08-0.45,1.891-0.86,2.43-1.221
				c0.631-0.35,0.99-0.529,1.08-0.529l1.48,2.149c0,0-0.36,0.23-1.08,0.681c-0.62,0.449-1.52,0.899-2.69,1.35
				c-1.079,0.45-2.38,0.85-3.909,1.21c-1.53,0.45-3.24,0.67-5.131,0.67c-3.229,0-6.069-0.979-8.489-2.96
				c-2.431-1.979-3.53-4.47-3.53-7.71v-57h-10v-3h10v-24h3v24h16v3h-16v57c0.18,2.61,0.9,4.42,2.78,5.85
				c1.89,1.351,3.899,2.131,6.239,2.131C438.55,963.362,439.99,963.182,441.34,962.822z"/>
			<path fill="#FFFFFF" d="M349.27,956.481c-1.619-3.06-2.689-6.47-3.229-10.25c-0.54-3.869-1.04-7.979-1.04-11.85v-39h3v39
				c0,3.96,0.19,7.98,0.73,11.58c0.539,3.51,1.529,6.61,2.97,9.31c1.53,2.69,3.6,4.851,6.2,6.471c2.609,1.529,6.029,2.29,10.25,2.29
				c3.6,0,7.02-0.67,10.25-2.021c3.239-1.35,6.159-3.149,8.77-5.399c2.7-2.24,4.99-4.811,6.88-7.681c1.88-2.88,3.05-6.399,3.95-9.55
				v-44h3v64.61c0,1.39,0.74,2.689,2,2.689v2.7c-1.53-0.09-2.91-0.67-3.81-1.75c-0.811-1.08-1.19-2.3-1.19-3.64v-12.61
				c-1.44,2.88-3.01,5.68-5.17,8.02c-2.16,2.341-4.58,4.36-7.28,6.07c-2.609,1.62-5.39,2.92-8.359,3.91
				c-2.971,0.9-5.98,1.35-9.04,1.35c-4.851,0-8.811-0.949-11.86-2.83C353.32,962.012,350.98,959.542,349.27,956.481z"/>
			<path fill="#FFFFFF" d="M315.61,905.102c-2.25,1.98-4.181,4.36-5.801,7.15c-1.529,2.69-2.909,5.89-3.81,9.13v44h-3v-70h3v18
				c2.88-5.66,6.73-9.99,11.23-13.14c4.579-3.23,9.979-4.85,16.18-4.85v2.7c-3.601,0.18-6.88,0.89-9.84,2.15
				C320.6,901.412,317.95,903.032,315.61,905.102z"/>
			<path fill="#FFFFFF" d="M281.72,962.822c1.351-0.36,2.521-0.721,3.511-1.08c1.069-0.45,1.88-0.86,2.42-1.221
				c0.63-0.35,0.989-0.529,1.08-0.529l1.479,2.149c0,0-0.35,0.23-1.07,0.681c-0.63,0.449-1.529,0.899-2.699,1.35
				c-1.08,0.45-2.381,0.85-3.91,1.21c-1.53,0.45-3.24,0.67-5.13,0.67c-3.23,0-6.07-0.979-8.49-2.96c-2.43-1.979-3.91-4.47-3.91-7.71
				v-57h-10v-3h10v-24h3v24h17v3h-17v57c0.18,2.61,1.18,4.52,3.07,5.95c1.88,1.35,4,2.03,6.33,2.03
				C278.93,963.362,280.37,963.182,281.72,962.822z"/>
			<path fill="#FFFFFF" d="M243.54,938.812c1.62,2.34,2.43,5.261,2.43,8.771s-0.86,6.52-2.56,9.03c-1.62,2.43-3.73,4.409-6.34,5.939
				c-2.61,1.44-5.49,2.47-8.63,3.1c-3.06,0.721-6.03,1.08-8.9,1.08c-5.85,0-10.97-1.08-15.38-3.239c-4.4-2.16-8.13-4.761-11.19-7.82
				l2.02-1.75c7.28,6.74,15.47,10.11,24.55,10.11c2.69,0,5.44-0.271,8.22-0.811c2.79-0.63,5.31-1.57,7.55-2.83
				c2.34-1.35,4.23-3.06,5.67-5.12c1.53-2.159,2.29-4.72,2.29-7.689c0-3.24-0.81-5.891-2.43-7.96c-1.52-2.07-3.5-3.641-5.93-4.721
				c-2.43-1.17-5.08-1.93-7.96-2.289c-2.78-0.45-5.44-0.681-7.95-0.681c-3.33,0-6.52-0.31-9.58-0.939
				c-3.05-0.721-5.75-1.8-8.09-3.24c-2.25-1.52-4.05-3.5-5.39-5.93c-1.35-2.43-2.03-5.39-2.03-8.9c0-3.42,0.77-6.29,2.3-8.63
				c1.52-2.34,3.46-4.23,5.79-5.67c2.43-1.52,5.08-2.6,7.96-3.23c2.97-0.72,5.89-1.08,8.77-1.08c5.93,0,10.56,0.9,13.89,2.7
				c3.32,1.7,6.11,4.18,8.36,7.41l-2.43,1.08c-0.9-1.71-2.11-3.1-3.64-4.18c-1.53-1.17-3.19-2.07-4.99-2.7
				c-1.8-0.62-3.69-1.03-5.66-1.21c-1.98-0.27-3.82-0.4-5.53-0.4c-2.61,0-5.26,0.31-7.96,0.94c-2.61,0.54-4.99,1.44-7.15,2.7
				c-2.06,1.26-3.77,2.92-5.12,4.99c-1.26,1.98-1.89,4.4-1.89,7.28c0,3.24,0.67,5.93,2.02,8.09c1.35,2.07,3.1,3.73,5.26,4.99
				c2.16,1.17,4.54,2.02,7.15,2.56c2.7,0.45,5.35,0.68,7.96,0.68c3.14,0,6.34,0.31,9.57,0.94c3.24,0.54,6.12,1.53,8.63,2.97
				C239.81,934.502,241.92,936.392,243.54,938.812z"/>
			<linearGradient id="SVGID_1_" gradientUnits="userSpaceOnUse" x1="139.8765" y1="944.4268" x2="73.7357" y2="870.1885">
				<stop  offset="0" style="stop-color:#E00000;stop-opacity:0.9149"/>
				<stop  offset="1" style="stop-color:#E0BF00;stop-opacity:0"/>
			</linearGradient>
			<polygon fill="url(#SVGID_1_)" points="178,895.382 155.5,925.382 80,925.382 72.5,935.382 50,935.382 80,895.382 			"/>
			<linearGradient id="SVGID_2_" gradientUnits="userSpaceOnUse" x1="139.8765" y1="974.4268" x2="73.7357" y2="900.1885">
				<stop  offset="0" style="stop-color:#E00000;stop-opacity:0.9149"/>
				<stop  offset="1" style="stop-color:#E0BF00;stop-opacity:0"/>
			</linearGradient>
			<polygon fill="url(#SVGID_2_)" points="178,925.382 148,965.382 50,965.382 72.5,935.382 148,935.382 155.5,925.382 			"/>
			<linearGradient id="SVGID_3_" gradientUnits="userSpaceOnUse" x1="147.3267" y1="967.7891" x2="81.1859" y2="893.5508">
				<stop  offset="0" style="stop-color:#E00000;stop-opacity:0.9149"/>
				<stop  offset="1" style="stop-color:#E0BF00;stop-opacity:0"/>
			</linearGradient>
			<polygon fill="url(#SVGID_3_)" points="155.5,925.382 148,935.382 72.5,935.382 80,925.382 			"/>
		</g>
		<g>
		</g>
	</g>
</g>
</svg>
